<?xml version="1.0" standalone="no"?>
<!DOCTYPE svg PUBLIC "-//W3C//DTD SVG 20010904//EN"
 "http://www.w3.org/TR/2001/REC-SVG-20010904/DTD/svg10.dtd">
<svg version="1.0" xmlns="http://www.w3.org/2000/svg"
 width="1057.000000pt" height="437.000000pt" viewBox="0 0 1057.000000 437.000000"
 preserveAspectRatio="xMidYMid meet">

<g transform="translate(0.000000,437.000000) scale(0.100000,-0.100000)"
fill="#000000" stroke="none">
<path d="M1918 4103 c-80 -147 -294 -542 -475 -878 -1126 -2081 -1393 -2575
-1412 -2613 l-22 -42 492 2 492 3 250 445 c137 245 368 659 514 920 146 261
271 481 277 487 9 10 39 -37 127 -195 63 -114 296 -531 517 -928 l402 -721
287 -6 c339 -8 693 -9 693 -2 0 3 -407 778 -904 1722 -496 945 -938 1786 -981
1868 -44 83 -86 163 -96 178 l-16 28 -145 -268z"/>
<path d="M10220 3437 c-96 -27 -155 -82 -191 -177 -23 -60 -24 -110 -5 -174
30 -100 99 -164 204 -191 131 -34 265 33 323 160 28 60 25 166 -5 230 -57 121
-201 187 -326 152z m178 -63 c59 -29 94 -70 117 -133 19 -55 19 -84 0 -148
-28 -94 -126 -163 -229 -163 -83 0 -179 66 -213 147 -18 43 -17 135 3 181 51
124 200 177 322 116z"/>
<path d="M10170 3160 l0 -150 25 0 c24 0 25 2 25 65 0 59 2 65 21 65 35 0 57
-18 91 -75 27 -46 37 -55 61 -55 l28 0 -16 31 c-9 16 -32 48 -52 70 -26 29
-31 39 -19 39 28 0 66 46 66 80 0 19 -9 40 -25 55 -22 23 -32 25 -115 25 l-90
0 0 -150z m168 98 c7 -7 12 -20 12 -29 0 -32 -29 -49 -81 -49 l-49 0 0 45 0
45 53 0 c29 0 58 -5 65 -12z"/>
<path d="M9510 2480 c0 -181 -3 -330 -6 -330 -4 0 -32 17 -62 37 -68 45 -177
88 -272 108 -83 18 -298 20 -386 4 -353 -62 -632 -328 -710 -675 -13 -59 -15
-107 -12 -208 4 -114 9 -144 38 -228 61 -183 188 -350 344 -452 104 -68 159
-93 276 -123 79 -21 119 -26 235 -26 193 -1 323 34 474 125 34 21 67 38 71 38
4 0 8 -19 8 -42 0 -24 1 -51 1 -60 1 -17 18 -18 201 -18 l200 0 0 1090 0 1090
-200 0 -200 0 0 -330z m-407 -555 c375 -79 514 -550 243 -821 -104 -103 -243
-154 -389 -139 -139 13 -240 58 -333 146 -71 69 -108 131 -129 220 -40 172 4
327 130 455 125 127 298 177 478 139z"/>
<path d="M4180 1670 l0 -1100 195 0 195 0 2 424 3 424 316 -416 316 -417 251
-3 c139 -1 252 1 252 4 0 4 -158 195 -350 426 -193 230 -353 425 -356 432 -5
12 555 747 574 754 4 1 126 -291 270 -650 144 -359 291 -723 326 -808 l63
-155 160 -3 159 -2 26 62 c14 35 168 398 343 808 174 410 319 753 322 763 5
16 -9 17 -204 17 l-210 0 -209 -545 c-183 -480 -210 -543 -220 -523 -6 13 -98
258 -204 546 l-194 522 -435 -2 -436 -3 -280 -377 -280 -377 -3 650 -2 649
-195 0 -195 0 0 -1100z"/>
<path d="M7380 2585 l0 -185 200 0 200 0 0 185 0 185 -200 0 -200 0 0 -185z"/>
<path d="M7380 1405 l0 -825 200 0 200 0 0 825 0 825 -200 0 -200 0 0 -825z"/>
<path d="M1657 1128 l-286 -533 112 -6 c187 -10 1219 -10 1215 0 -1 6 -136
248 -298 540 l-295 530 -81 1 -80 0 -287 -532z"/>
<path d="M4240 229 l0 -222 178 5 c138 4 184 8 209 21 75 39 97 120 46 171
-14 14 -37 29 -51 33 l-25 6 26 14 c34 17 59 66 51 97 -9 37 -54 74 -104 85
-25 6 -109 11 -187 11 l-143 0 0 -221z m304 135 c19 -7 29 -35 20 -58 -8 -21
-32 -27 -129 -29 l-80 -2 -3 39 c-6 67 -2 70 92 62 47 -3 91 -9 100 -12z m10
-174 c34 -12 44 -54 21 -80 -16 -17 -32 -20 -122 -20 l-103 0 0 55 0 55 89 0
c49 0 101 -4 115 -10z"/>
<path d="M4855 240 c-58 -115 -105 -214 -105 -220 0 -5 25 -10 55 -10 l54 0
22 50 21 50 114 0 114 0 22 -47 23 -48 58 -3 c31 -2 57 -1 57 2 0 3 -48 103
-107 221 l-108 215 -57 0 -58 0 -105 -210z m200 24 c19 -42 35 -78 35 -80 0
-8 -139 -4 -143 4 -4 7 60 152 68 152 2 0 20 -34 40 -76z"/>
<path d="M5260 413 l0 -38 78 0 77 0 5 -180 5 -180 53 -3 52 -3 0 180 c0 138
3 181 13 182 6 1 17 2 22 4 6 1 38 3 73 3 l62 2 0 35 0 35 -220 0 -220 0 0
-37z"/>
<path d="M5770 230 l0 -220 55 0 55 0 0 95 0 95 110 0 110 0 0 -95 0 -95 55 0
55 0 0 220 0 220 -55 0 -55 0 0 -85 0 -85 -110 0 -110 0 0 85 0 85 -55 0 -55
0 0 -220z"/>
<path d="M6540 230 l0 -220 55 0 55 0 0 95 0 95 115 0 115 0 0 35 0 35 -116 0
-115 0 3 53 c3 60 -14 54 166 56 l102 1 0 35 0 35 -190 0 -190 0 0 -220z"/>
<path d="M7010 230 l0 -220 55 0 55 0 0 220 0 220 -55 0 -55 0 0 -220z"/>
<path d="M7190 413 l0 -38 78 0 77 0 3 -183 2 -182 55 0 55 0 2 183 3 182 80
1 80 1 0 34 0 34 -217 3 -218 2 0 -37z"/>
<path d="M7660 413 l0 -38 78 0 77 0 5 -180 5 -180 53 -3 52 -3 0 180 c0 100
3 182 8 182 17 3 71 7 115 8 47 1 47 1 47 36 l0 35 -220 0 -220 0 0 -37z"/>
<path d="M8170 229 l0 -220 53 3 52 3 3 218 2 217 -55 0 -55 0 0 -221z"/>
<path d="M8390 230 l0 -220 50 0 49 0 3 141 3 141 110 -141 109 -141 53 0 53
0 0 220 0 220 -50 0 -49 0 -3 -144 -3 -143 -110 143 -110 143 -52 0 -53 1 0
-220z"/>
<path d="M9055 427 c-102 -48 -150 -144 -125 -249 17 -67 76 -128 149 -153 75
-25 214 -17 296 16 l60 24 0 90 0 90 -117 3 -118 3 0 -41 0 -40 65 0 c62 0 65
-1 65 -25 0 -30 -41 -54 -109 -62 -60 -7 -109 9 -146 47 -37 38 -47 128 -20
179 41 79 215 95 254 23 9 -17 18 -19 53 -15 67 9 72 14 46 53 -40 59 -79 74
-198 78 -94 3 -110 0 -155 -21z"/>
<path d="M9625 439 c-47 -13 -87 -61 -87 -102 0 -72 47 -105 195 -138 103 -22
123 -35 113 -72 -16 -67 -183 -59 -215 9 -10 22 -16 25 -59 22 -39 -2 -48 -7
-50 -24 -4 -29 43 -83 93 -105 56 -26 204 -26 261 0 106 48 114 165 13 216
-15 9 -69 25 -119 36 -49 11 -100 29 -112 40 l-23 19 24 20 c45 38 171 19 171
-26 0 -10 14 -14 55 -14 51 0 55 2 55 23 0 34 -28 67 -74 88 -45 20 -184 25
-241 8z"/>
</g>
</svg>
